<svg width="40" height="40" viewBox="0 0 40 40" fill="none" xmlns="http://www.w3.org/2000/svg">
<path d="M40 20C40 31.0457 31.0457 40 20 40C8.9543 40 0 31.0457 0 20C0 8.9543 8.9543 0 20 0C31.0457 0 40 8.9543 40 20Z" fill="#E5E6EB"/>
<path d="M19.5 12C18.9477 12 18.5 12.4477 18.5 13V18.5H13C12.4477 18.5 12 18.9477 12 19.5C12 20.0523 12.4477 20.5 13 20.5H18.5V26C18.5 26.5523 18.9477 27 19.5 27C20.0523 27 20.5 26.5523 20.5 26V20.5H26C26.5523 20.5 27 20.0523 27 19.5C27 18.9477 26.5523 18.5 26 18.5H20.5V13C20.5 12.4477 20.0523 12 19.5 12Z" fill="#66676B"/>
</svg>
